<svg xmlns="http://www.w3.org/2000/svg" fill="none" viewBox="0 0 24 24" id="Vultr-Icon--Streamline-Svg-Logos" class="max-w-[100%]">
  <desc>
    Vultr Icon Streamline Icon: https://streamlinehq.com
  </desc>
  <path fill="#c9f4ff" d="M8.435825 2.458205c-0.21105 -0.3453125 -0.58565 -0.5569525 -0.99035 -0.5595225H1.425c-0.648935 0 -1.175 0.526065 -1.175 1.1749925 0 0.221525 0.062025 0.4386 0.1790475 0.626675l1.5498825 2.27725 7.749395 -1.67855 -1.2925 -1.840845Z" stroke-width="0.25"></path>
  <path fill="#51b9ff" d="M9.7619 4.343725c-0.21365 -0.3454 -0.589825 -0.556725 -0.99595 -0.559525H2.76785c-0.4396375 -0.020275 -0.853425 0.208 -1.0707575 0.5907 -0.2173325 0.382675 -0.2014 0.854975 0.0412275 1.222175L3.46725 8.338725l8.006775 -1.253325 -1.712125 -2.741675Z" stroke-width="0.25"></path>
  <path fill="#007bfc" d="M3.3945 8.226875c-0.1967 -0.31515 -0.235975 -0.70375 -0.1063 -1.0519 0.17985 -0.459075 0.626075 -0.758025 1.11905 -0.74975h5.9981c0.4064 0.0017 0.783075 0.213325 0.99595 0.559525L16.7895 15.528675c0.117025 0.188075 0.17905 0.40515 0.17905 0.626675 -0.000875 0.221375 -0.062825 0.438225 -0.17905 0.62665L13.779275 21.55475c-0.216725 0.340475 -0.59235 0.54665 -0.99595 0.54665 -0.4036 0 -0.77925 -0.206175 -0.99595 -0.54665L3.3945 8.226875Z" stroke-width="0.25"></path>
  <path fill="#007bfc" d="M18.5688 10.957375c0.216725 0.340475 0.59235 0.54665 0.99595 0.54665 0.4036 0 0.779225 -0.206175 0.99595 -0.54665l1.035125 -1.6394 1.975125 -3.13335c0.117025 -0.188075 0.17905 -0.40515 0.17905 -0.62665 -0.0009 -0.2214 -0.06285 -0.43825 -0.17905 -0.626675l-1.566675 -2.473095c-0.21365 -0.3454 -0.589825 -0.55674 -0.99595 -0.5595225H14.98785c-0.311625 0 -0.6105 0.1237925 -0.83085 0.34415 -0.22035 0.220355 -0.3442 0.5192175 -0.3442 0.8308425 -0.0021 0.2226 0.062175 0.4408 0.1847 0.626675l4.5713 7.257025Z" stroke-width="0.25"></path>
</svg>